<svg xmlns="http://www.w3.org/2000/svg" xmlns:xlink="http://www.w3.org/1999/xlink" width="500" zoomAndPan="magnify" viewBox="0 0 375 374.999991" height="500" preserveAspectRatio="xMidYMid meet" version="1.0"><defs><clipPath id="dedc8c9657"><path d="M 53 37.5 L 325.921875 37.5 L 325.921875 311.25 L 53 311.25 Z M 53 37.5 " clip-rule="nonzero"/></clipPath></defs><path fill="#000000" d="M 93.796875 -0.046875 C 42.023438 -0.046875 0.046875 41.929688 0.046875 93.703125 L 0.046875 281.203125 C 0.046875 332.976562 42.023438 374.953125 93.796875 374.953125 L 281.296875 374.953125 C 333.070312 374.953125 375.046875 332.976562 375.046875 281.203125 L 375.046875 93.703125 C 375.046875 41.929688 333.070312 -0.046875 281.296875 -0.046875 Z M 93.796875 -0.046875 " fill-opacity="1" fill-rule="nonzero"/><g clip-path="url(#dedc8c9657)"><path fill="#ff914d" d="M 193.855469 162.03125 C 197.628906 164.058594 201.085938 168.296875 204.644531 168.613281 C 272.839844 174.644531 325.921875 188.679688 325.921875 230.328125 C 325.921875 274.960938 265.007812 311.132812 189.855469 311.132812 C 114.710938 311.132812 53.796875 274.960938 53.796875 230.328125 C 53.796875 188.863281 106.417969 174.773438 174.160156 168.636719 C 178.605469 168.238281 183.113281 162.707031 188.011719 161.304688 C 187.976562 163.453125 187.8125 165.378906 187.519531 167.011719 C 184.796875 169.363281 181.921875 174.417969 177.351562 174.789062 C 140.4375 177.820312 108.878906 184.117188 89.960938 193.972656 C 81.25 198.511719 85.96875 208.675781 94.207031 204.53125 C 107.664062 197.769531 123.570312 194.582031 139.800781 192.261719 C 155.507812 190.015625 171.527344 188.503906 185.953125 188.503906 C 185.921875 191.152344 186.015625 193.632812 186.21875 196.105469 C 179.644531 196.371094 156.628906 196.621094 134.960938 200.078125 C 111.375 203.839844 89.277344 211.210938 89.277344 221.628906 C 89.277344 229.074219 105.257812 237.066406 129.984375 242.355469 C 104.503906 238.25 86.410156 231.546875 81.363281 223.859375 C 77.691406 218.261719 69.046875 219.914062 73.960938 225.375 C 87.992188 240.964844 134.902344 251.496094 189.855469 251.496094 C 245.066406 251.496094 291.90625 240.636719 305.960938 225.179688 C 310.527344 220.15625 301.933594 218.210938 298.359375 223.851562 C 294.640625 229.726562 283.296875 234.9375 266.988281 238.917969 C 283.804688 233.921875 294.089844 227.601562 294.089844 221.628906 C 294.089844 209.847656 263.847656 201.71875 236.585938 198.15625 C 217.398438 195.644531 200.542969 196.089844 192.980469 196.113281 C 192.847656 193.285156 192.914062 190.929688 193.027344 188.261719 C 222.71875 189.191406 258.253906 191.070312 285.21875 204.574219 C 293.304688 208.628906 298.585938 198.332031 288.980469 193.65625 C 269.503906 184.152344 237.707031 177.636719 200.492188 174.746094 C 196.964844 174.472656 195.285156 170.808594 193.394531 168.296875 C 193.453125 166.171875 193.582031 164 193.855469 162.03125 Z M 210.496094 222.265625 C 208.257812 223.980469 202.3125 225.207031 195.328125 225.207031 C 188.339844 225.207031 182.398438 223.980469 180.164062 222.265625 C 181.492188 225.207031 187.773438 227.445312 195.328125 227.445312 C 202.878906 227.445312 209.164062 225.207031 210.496094 222.265625 Z M 188.898438 163.863281 C 187.679688 180.667969 186.703125 189.566406 188.585938 205.949219 C 189.257812 211.84375 189.566406 218.054688 186.179688 218.613281 C 183.550781 219.050781 181.871094 219.816406 181.871094 220.625 C 181.871094 222.046875 186.972656 223.195312 193.269531 223.195312 C 199.570312 223.195312 204.667969 222.046875 204.667969 220.625 C 204.667969 219.75 202.710938 219.078125 199.769531 218.515625 C 197.582031 218.101562 194.992188 211.9375 193.351562 206.554688 C 189.996094 195.558594 191.566406 175.203125 192.289062 163.683594 C 192.972656 152.828125 194.347656 141.894531 193.605469 139.109375 C 192.265625 134.601562 188.039062 136.574219 188.898438 140.574219 C 188.964844 140.609375 189.742188 152.136719 188.898438 163.863281 Z M 195.777344 156.273438 C 201.699219 139.792969 203.71875 124.261719 195.011719 104.136719 C 195.8125 122.796875 175.6875 134.695312 184.996094 156.085938 C 173.078125 146.078125 167.871094 138.707031 166.675781 130.3125 C 165.019531 118.605469 177.160156 104.144531 177.875 79.320312 C 179.667969 93.746094 180.890625 107.210938 178.066406 115.289062 C 188.644531 102.984375 171.492188 74.097656 190.773438 37.574219 C 189.710938 93.023438 239.769531 125.429688 195.777344 156.273438 Z M 319.363281 216.433594 C 315.101562 239.847656 258.757812 258.382812 189.855469 258.382812 C 120.96875 258.382812 64.621094 239.847656 60.355469 216.429688 C 49.152344 256.609375 93.425781 286.425781 129.421875 297.847656 C 96.386719 282.660156 99.519531 252.132812 128.796875 258.941406 C 172.695312 269.148438 252.316406 265.191406 292.296875 246.902344 C 310.121094 238.753906 312.5 255.136719 290.84375 277.816406 C 315.523438 263.535156 324.871094 235.152344 319.632812 219.398438 C 319.632812 218.398438 319.535156 217.414062 319.363281 216.433594 " fill-opacity="1" fill-rule="evenodd"/></g></svg>